<svg version="1.1" id="Layer_1" xmlns="http://www.w3.org/2000/svg" xmlns:xlink="http://www.w3.org/1999/xlink" x="0px" y="0px"
	 width="100%" viewBox="0 0 500 500" enable-background="new 0 0 500 500" xml:space="preserve">
<path fill="#213173" opacity="1.000000" stroke="none" 
	d="
M406.000000,501.000000 
	C303.311890,501.000000 200.623810,501.000000 97.400833,500.643188 
	C96.079208,499.784943 95.355049,499.095306 94.496506,498.809784 
	C75.806221,492.594696 62.809158,472.976837 62.857067,452.294250 
	C63.145031,327.980652 63.017464,203.666061 62.966564,79.351814 
	C62.962555,69.563622 65.763878,60.678993 70.985352,52.601017 
	C82.088959,35.422962 106.409904,27.146822 128.728958,32.842358 
	C128.464325,34.415295 128.297546,36.038658 127.910263,37.607586 
	C125.075836,49.090034 125.332703,60.763985 127.371857,72.170479 
	C131.229935,93.751534 151.590561,109.990433 173.632416,109.995842 
	C224.791229,110.008400 275.950470,110.097092 327.108246,109.866631 
	C332.949524,109.840324 339.013214,108.676697 344.576294,106.837906 
	C361.697235,101.178864 376.132874,82.727386 375.071503,63.969654 
	C374.484436,53.594719 374.623260,43.178711 374.420715,32.000172 
	C380.105560,32.000172 386.709137,31.993908 393.312683,32.001286 
	C417.783691,32.028633 438.983887,53.234993 438.988495,77.836678 
	C439.012024,203.650711 438.980164,329.464752 439.020996,455.278778 
	C439.026825,473.269287 425.796021,491.679321 409.999817,497.955872 
	C408.500122,498.551758 407.325531,499.965820 406.000000,501.000000 
M355.304626,190.972458 
	C335.931610,183.518051 313.920380,198.309631 313.966949,220.949020 
	C314.073120,272.584137 313.987885,324.219666 314.007477,375.855011 
	C314.015411,396.804016 335.303375,412.049866 354.209625,405.040009 
	C368.050415,399.908264 375.846497,389.080658 375.921753,371.705872 
	C376.134491,322.569946 376.093292,273.432159 375.937073,224.295792 
	C375.890076,209.507889 370.499268,197.507492 355.304626,190.972458 
M282.000000,349.500000 
	C282.000000,329.185822 282.055176,308.871368 281.953918,288.557709 
	C281.933380,284.441528 281.790283,280.224304 280.903290,276.231445 
	C276.717590,257.388641 257.898102,246.152222 238.693100,254.359589 
	C226.165619,259.713287 220.130020,270.531891 220.051086,284.148315 
	C219.886063,312.620605 219.962128,341.094604 220.044174,369.567596 
	C220.055557,373.516815 220.296616,377.536560 221.058517,381.399963 
	C224.203293,397.346832 235.556229,406.653473 251.042389,406.636230 
	C266.422363,406.619080 278.356903,397.452026 280.789307,381.293854 
	C282.309235,371.197296 281.670227,360.775726 282.000000,349.500000 
M145.171600,316.355042 
	C131.614212,322.864227 126.265076,334.394867 126.088257,348.648315 
	C125.965126,358.573334 127.032867,368.513214 126.907936,378.438141 
	C126.720444,393.332245 144.809219,410.095062 162.688110,406.168304 
	C177.181702,402.985077 187.645065,390.889221 187.953873,376.504425 
	C188.186264,365.679626 188.235779,354.838867 187.915085,344.018585 
	C187.708023,337.032562 185.484665,330.503876 180.665665,325.188660 
	C171.084808,314.621216 159.488281,311.515503 145.171600,316.355042 
z"/>
<path fill="#000000" opacity="1.000000" stroke="none" 
	d="
M406.468658,501.000000 
	C407.325531,499.965820 408.500122,498.551758 409.999817,497.955872 
	C425.796021,491.679321 439.026825,473.269287 439.020996,455.278778 
	C438.980164,329.464752 439.012024,203.650711 438.988495,77.836678 
	C438.983887,53.234993 417.783691,32.028633 393.312683,32.001286 
	C386.709137,31.993908 380.105560,32.000172 374.420715,32.000172 
	C374.623260,43.178711 374.484436,53.594719 375.071503,63.969654 
	C376.132874,82.727386 361.697235,101.178864 344.576294,106.837906 
	C339.013214,108.676697 332.949524,109.840324 327.108246,109.866631 
	C275.950470,110.097092 224.791229,110.008400 173.632416,109.995842 
	C151.590561,109.990433 131.229935,93.751534 127.371857,72.170479 
	C125.332703,60.763985 125.075836,49.090034 127.910263,37.607586 
	C128.297546,36.038658 128.464325,34.415295 128.728958,32.842358 
	C106.409904,27.146822 82.088959,35.422962 70.985352,52.601017 
	C65.763878,60.678993 62.962555,69.563622 62.966564,79.351814 
	C63.017464,203.666061 63.145031,327.980652 62.857067,452.294250 
	C62.809158,472.976837 75.806221,492.594696 94.496506,498.809784 
	C95.355049,499.095306 96.079208,499.784943 96.932983,500.643188 
	C65.017723,501.000000 33.035454,501.000000 1.026590,501.000000 
	C1.026590,334.443390 1.026590,167.886780 1.026590,1.000000 
	C65.353851,1.000000 129.708267,1.000000 194.619293,1.360105 
	C194.526535,2.616127 193.753922,3.448107 193.250046,4.419483 
	C191.455902,7.878172 188.349976,11.358601 188.285553,14.877397 
	C188.109787,24.476845 181.337463,31.632608 170.879303,32.080406 
	C162.900620,32.422043 157.170166,38.750526 157.027008,46.809666 
	C156.920486,52.806145 157.024445,58.806103 156.998199,64.804352 
	C156.974014,70.333870 159.520691,74.677757 164.289322,76.899452 
	C168.063690,78.657906 172.484650,79.846031 176.626724,79.870132 
	C214.448486,80.090202 252.272049,80.000076 290.095093,79.999832 
	C302.258453,79.999756 314.422241,80.062607 326.584991,79.975716 
	C336.165802,79.907272 346.278870,74.559074 345.066162,61.587616 
	C344.649200,57.127777 345.019562,52.596138 344.994385,48.097500 
	C344.939941,38.371342 339.712372,32.798882 329.912750,31.986980 
	C320.303864,31.190882 314.529755,25.195572 313.940582,15.664142 
	C313.822021,13.745639 313.365784,11.644629 312.399292,10.025207 
	C310.515137,6.868239 308.160065,3.992311 306.000000,1.000002 
	C370.963989,1.000000 435.927979,1.000000 500.942627,1.000000 
	C500.942627,167.666672 500.942627,334.333344 500.942627,501.000000 
	C469.569305,501.000000 438.253296,501.000000 406.468658,501.000000 
z"/>
<path fill="#213173" opacity="1.000000" stroke="none" 
	d="
M305.531342,1.000002 
	C308.160065,3.992311 310.515137,6.868239 312.399292,10.025207 
	C313.365784,11.644629 313.822021,13.745639 313.940582,15.664142 
	C314.529755,25.195572 320.303864,31.190882 329.912750,31.986980 
	C339.712372,32.798882 344.939941,38.371342 344.994385,48.097500 
	C345.019562,52.596138 344.649200,57.127777 345.066162,61.587616 
	C346.278870,74.559074 336.165802,79.907272 326.584991,79.975716 
	C314.422241,80.062607 302.258453,79.999756 290.095093,79.999832 
	C252.272049,80.000076 214.448486,80.090202 176.626724,79.870132 
	C172.484650,79.846031 168.063690,78.657906 164.289322,76.899452 
	C159.520691,74.677757 156.974014,70.333870 156.998199,64.804352 
	C157.024445,58.806103 156.920486,52.806145 157.027008,46.809666 
	C157.170166,38.750526 162.900620,32.422043 170.879303,32.080406 
	C181.337463,31.632608 188.109787,24.476845 188.285553,14.877397 
	C188.349976,11.358601 191.455902,7.878172 193.250046,4.419483 
	C193.753922,3.448107 194.526535,2.616127 195.087952,1.360105 
	C231.687561,1.000000 268.375122,1.000000 305.531342,1.000002 
z"/>
<path fill="#4CAF50" opacity="1.000000" stroke="none" 
	d="
M355.691833,191.046661 
	C370.499268,197.507492 375.890076,209.507889 375.937073,224.295792 
	C376.093292,273.432159 376.134491,322.569946 375.921753,371.705872 
	C375.846497,389.080658 368.050415,399.908264 354.209625,405.040009 
	C335.303375,412.049866 314.015411,396.804016 314.007477,375.855011 
	C313.987885,324.219666 314.073120,272.584137 313.966949,220.949020 
	C313.920380,198.309631 335.931610,183.518051 355.691833,191.046661 
z"/>
<path fill="#9C27B0" opacity="1.000000" stroke="none" 
	d="
M282.000000,350.000000 
	C281.670227,360.775726 282.309235,371.197296 280.789307,381.293854 
	C278.356903,397.452026 266.422363,406.619080 251.042389,406.636230 
	C235.556229,406.653473 224.203293,397.346832 221.058517,381.399963 
	C220.296616,377.536560 220.055557,373.516815 220.044174,369.567596 
	C219.962128,341.094604 219.886063,312.620605 220.051086,284.148315 
	C220.130020,270.531891 226.165619,259.713287 238.693100,254.359589 
	C257.898102,246.152222 276.717590,257.388641 280.903290,276.231445 
	C281.790283,280.224304 281.933380,284.441528 281.953918,288.557709 
	C282.055176,308.871368 282.000000,329.185822 282.000000,350.000000 
z"/>
<path fill="#FF5722" opacity="1.000000" stroke="none" 
	d="
M145.541031,316.208649 
	C159.488281,311.515503 171.084808,314.621216 180.665665,325.188660 
	C185.484665,330.503876 187.708023,337.032562 187.915085,344.018585 
	C188.235779,354.838867 188.186264,365.679626 187.953873,376.504425 
	C187.645065,390.889221 177.181702,402.985077 162.688110,406.168304 
	C144.809219,410.095062 126.720444,393.332245 126.907936,378.438141 
	C127.032867,368.513214 125.965126,358.573334 126.088257,348.648315 
	C126.265076,334.394867 131.614212,322.864227 145.541031,316.208649 
z"/>
</svg>